ffmpeg started on 2025-06-06 at 20:52:20
Report written to "D:\Convert\FFMetrics\reports\ssim_report-6.txt"
Log level: 32
Command line:
ffmpeg -hide_banner -nostdin -i "G:\\\xc0\xed\xe8\xec\xe5\\\xce\xed\xe3\xee\xe8\xed\xe3\xe8\\!_36_\xce\xf1\xe5\xed\xfc_2024\\DreamCast\\\xd2\xe5\xf2\xf0\xe0\xe4\xfc \xe4\xf0\xf3\xe6\xe1\xfb \xcd\xe0\xf6\xf3\xec\xfd [\xd2\xc2-7]\\[DC] Natsume Yuujinchou Shichi - 11_Telegram_HEVC.mkv" -i "G:\\\xc0\xed\xe8\xec\xe5\\\xce\xed\xe3\xee\xe8\xed\xe3\xe8\\!_36_\xce\xf1\xe5\xed\xfc_2024\\DreamCast\\\xd2\xe5\xf2\xf0\xe0\xe4\xfc \xe4\xf0\xf3\xe6\xe1\xfb \xcd\xe0\xf6\xf3\xec\xfd [\xd2\xc2-7]\\[DC] Natsume Yuujinchou Shichi - 11_Telegram.mp4" -lavfi "[0:v]settb=AVTB,setpts=PTS-STARTPTS,format=pix_fmts=yuv420p10,fps=24000/1001,scale=1920:1080:flags=bicubic[main];[1:v]settb=AVTB,setpts=PTS-STARTPTS,format=pix_fmts=yuv420p,fps=24000/1001,scale=1920:1080:flags=bicubic[ref];[main][ref]ssim=eof_action=endall:stats_file='D\\:/Convert/FFMetrics/logs/ssim_logfile-6.txt'" -f null -
Input #0, matroska,webm, from 'G:\Аниме\Онгоинги\!_36_Осень_2024\DreamCast\Тетрадь дружбы Нацумэ [ТВ-7]\[DC] Natsume Yuujinchou Shichi - 11_Telegram_HEVC.mkv':
  Metadata:
    COMPATIBLE_BRANDS: isomiso2avc1mp41
    MAJOR_BRAND     : isom
    MINOR_VERSION   : 512
    ENCODER         : Lavf61.7.100
  Duration: 00:23:57.74, start: -0.021000, bitrate: 939 kb/s
  Stream #0:0: Video: hevc (Main 10), yuv420p10le(tv, bt709, progressive), 1920x1080 [SAR 1:1 DAR 16:9], 23.98 fps, 23.98 tbr, 1k tbn (default)
      Metadata:
        HANDLER_NAME    : VideoHandler
        VENDOR_ID       : [0][0][0][0]
        ENCODER         : Lavc61.19.100 libx265
        BPS             : 743041
        DURATION        : 00:23:56.559708333
        NUMBER_OF_FRAMES: 34443
        NUMBER_OF_BYTES : 133427890
        _STATISTICS_WRITING_APP: mkvpropedit v66.0.0 ('Josie') 64-bit
        _STATISTICS_WRITING_DATE_UTC: 2025-06-04 16:05:29
        _STATISTICS_TAGS: BPS DURATION NUMBER_OF_FRAMES NUMBER_OF_BYTES
  Stream #0:1: Audio: aac (LC), 48000 Hz, stereo, fltp (default)
      Metadata:
        HANDLER_NAME    : SoundHandler
        VENDOR_ID       : [0][0][0][0]
        ENCODER         : Lavc61.19.100 aac
        BPS             : 193332
        DURATION        : 00:23:57.738000000
        NUMBER_OF_FRAMES: 67395
        NUMBER_OF_BYTES : 34745213
        _STATISTICS_WRITING_APP: mkvpropedit v66.0.0 ('Josie') 64-bit
        _STATISTICS_WRITING_DATE_UTC: 2025-06-04 16:05:29
        _STATISTICS_TAGS: BPS DURATION NUMBER_OF_FRAMES NUMBER_OF_BYTES
Input #1, mov,mp4,m4a,3gp,3g2,mj2, from 'G:\Аниме\Онгоинги\!_36_Осень_2024\DreamCast\Тетрадь дружбы Нацумэ [ТВ-7]\[DC] Natsume Yuujinchou Shichi - 11_Telegram.mp4':
  Metadata:
    major_brand     : isom
    minor_version   : 512
    compatible_brands: isomiso2avc1mp41
    encoder         : Lavf61.1.100
  Duration: 00:23:57.68, start: 0.000000, bitrate: 3459 kb/s
  Stream #1:0[0x1](und): Video: h264 (High) (avc1 / 0x31637661), yuv420p(tv, bt709, progressive), 1920x1080 [SAR 1:1 DAR 16:9], 3314 kb/s, 23.98 fps, 23.98 tbr, 24k tbn (default)
      Metadata:
        handler_name    : VideoHandler
        vendor_id       : [0][0][0][0]
        encoder         : Lavc61.3.100 h264_qsv
  Stream #1:1[0x2](und): Audio: aac (HE-AACv2) (mp4a / 0x6134706D), 48000 Hz, stereo, fltp, 144 kb/s (default)
      Metadata:
        handler_name    : SoundHandler
        vendor_id       : [0][0][0][0]
Stream mapping:
  Stream #0:0 (hevc) -> settb:default
  Stream #1:0 (h264) -> settb:default
  ssim:default -> Stream #0:0 (wrapped_avframe)
  Stream #0:1 -> #0:1 (aac (native) -> pcm_s16le (native))
Output #0, null, to 'pipe:':
  Metadata:
    COMPATIBLE_BRANDS: isomiso2avc1mp41
    MAJOR_BRAND     : isom
    MINOR_VERSION   : 512
    encoder         : Lavf61.7.100
  Stream #0:0: Video: wrapped_avframe, yuv420p10le(tv, bt709, progressive), 1920x1080 [SAR 1:1 DAR 16:9], q=2-31, 200 kb/s, 23.98 fps, 23.98 tbn
      Metadata:
        encoder         : Lavc61.19.100 wrapped_avframe
  Stream #0:1: Audio: pcm_s16le, 48000 Hz, stereo, s16, 1536 kb/s (default)
      Metadata:
        HANDLER_NAME    : SoundHandler
        VENDOR_ID       : [0][0][0][0]
        _STATISTICS_TAGS: BPS DURATION NUMBER_OF_FRAMES NUMBER_OF_BYTES
        BPS             : 193332
        DURATION        : 00:23:57.738000000
        NUMBER_OF_FRAMES: 67395
        NUMBER_OF_BYTES : 34745213
        _STATISTICS_WRITING_APP: mkvpropedit v66.0.0 ('Josie') 64-bit
        _STATISTICS_WRITING_DATE_UTC: 2025-06-04 16:05:29
        encoder         : Lavc61.19.100 pcm_s16le
frame=  174 fps=0.0 q=-0.0 size=N/A time=00:00:07.25 bitrate=N/A speed=14.1x    frame=  340 fps=330 q=-0.0 size=N/A time=00:00:14.18 bitrate=N/A speed=13.8x    frame=  536 fps=347 q=-0.0 size=N/A time=00:00:22.35 bitrate=N/A speed=14.5x    frame=  753 fps=367 q=-0.0 size=N/A time=00:00:31.40 bitrate=N/A speed=15.3x    frame=  957 fps=371 q=-0.0 size=N/A time=00:00:39.91 bitrate=N/A speed=15.5x    frame= 1177 fps=380 q=-0.0 size=N/A time=00:00:49.09 bitrate=N/A speed=15.8x    frame= 1374 fps=381 q=-0.0 size=N/A time=00:00:57.30 bitrate=N/A speed=15.9x    frame= 1593 fps=387 q=-0.0 size=N/A time=00:01:06.44 bitrate=N/A speed=16.1x    frame= 1794 fps=387 q=-0.0 size=N/A time=00:01:14.82 bitrate=N/A speed=16.1x    frame= 1979 fps=384 q=-0.0 size=N/A time=00:01:22.54 bitrate=N/A speed=  16x    frame= 2192 fps=387 q=-0.0 size=N/A time=00:01:31.42 bitrate=N/A speed=16.1x    frame= 2445 fps=395 q=-0.0 size=N/A time=00:01:41.97 bitrate=N/A speed=16.5x    frame= 2722 fps=406 q=-0.0 size=N/A time=00:01:53.53 bitrate=N/A speed=16.9x    frame= 2959 fps=410 q=-0.0 size=N/A time=00:02:03.41 bitrate=N/A speed=17.1x    frame= 3187 fps=412 q=-0.0 size=N/A time=00:02:12.92 bitrate=N/A speed=17.2x    frame= 3430 fps=416 q=-0.0 size=N/A time=00:02:23.05 bitrate=N/A speed=17.3x    frame= 3667 fps=418 q=-0.0 size=N/A time=00:02:32.94 bitrate=N/A speed=17.5x    frame= 3941 fps=425 q=-0.0 size=N/A time=00:02:44.37 bitrate=N/A speed=17.7x    frame= 4216 fps=431 q=-0.0 size=N/A time=00:02:55.84 bitrate=N/A speed=  18x    frame= 4511 fps=437 q=-0.0 size=N/A time=00:03:08.14 bitrate=N/A speed=18.2x    frame= 4787 fps=442 q=-0.0 size=N/A time=00:03:19.65 bitrate=N/A speed=18.4x    frame= 5074 fps=447 q=-0.0 size=N/A time=00:03:31.62 bitrate=N/A speed=18.7x    frame= 5352 fps=452 q=-0.0 size=N/A time=00:03:43.22 bitrate=N/A speed=18.8x    frame= 5558 fps=449 q=-0.0 size=N/A time=00:03:51.81 bitrate=N/A speed=18.7x    frame= 5806 fps=451 q=-0.0 size=N/A time=00:04:02.15 bitrate=N/A speed=18.8x    frame= 6041 fps=450 q=-0.0 size=N/A time=00:04:11.96 bitrate=N/A speed=18.8x    frame= 6281 fps=451 q=-0.0 size=N/A time=00:04:21.97 bitrate=N/A speed=18.8x    frame= 6502 fps=450 q=-0.0 size=N/A time=00:04:31.18 bitrate=N/A speed=18.8x    frame= 6764 fps=452 q=-0.0 size=N/A time=00:04:42.11 bitrate=N/A speed=18.8x    frame= 7022 fps=453 q=-0.0 size=N/A time=00:04:52.87 bitrate=N/A speed=18.9x    frame= 7273 fps=455 q=-0.0 size=N/A time=00:05:03.34 bitrate=N/A speed=  19x    frame= 7497 fps=454 q=-0.0 size=N/A time=00:05:12.68 bitrate=N/A speed=18.9x    frame= 7756 fps=455 q=-0.0 size=N/A time=00:05:23.48 bitrate=N/A speed=  19x    frame= 8015 fps=457 q=-0.0 size=N/A time=00:05:34.29 bitrate=N/A speed=  19x    frame= 8260 fps=457 q=-0.0 size=N/A time=00:05:44.51 bitrate=N/A speed=19.1x    frame= 8545 fps=460 q=-0.0 size=N/A time=00:05:56.39 bitrate=N/A speed=19.2x    frame= 8813 fps=462 q=-0.0 size=N/A time=00:06:07.57 bitrate=N/A speed=19.3x    frame= 9073 fps=463 q=-0.0 size=N/A time=00:06:18.41 bitrate=N/A speed=19.3x    frame= 9353 fps=465 q=-0.0 size=N/A time=00:06:30.09 bitrate=N/A speed=19.4x    frame= 9633 fps=467 q=-0.0 size=N/A time=00:06:41.77 bitrate=N/A speed=19.5x    frame= 9902 fps=468 q=-0.0 size=N/A time=00:06:52.99 bitrate=N/A speed=19.5x    frame=10181 fps=470 q=-0.0 size=N/A time=00:07:04.63 bitrate=N/A speed=19.6x    frame=10446 fps=471 q=-0.0 size=N/A time=00:07:15.68 bitrate=N/A speed=19.6x    frame=10717 fps=472 q=-0.0 size=N/A time=00:07:26.98 bitrate=N/A speed=19.7x    frame=10984 fps=473 q=-0.0 size=N/A time=00:07:38.12 bitrate=N/A speed=19.7x    frame=11267 fps=475 q=-0.0 size=N/A time=00:07:49.92 bitrate=N/A speed=19.8x    frame=11543 fps=476 q=-0.0 size=N/A time=00:08:01.43 bitrate=N/A speed=19.9x    frame=11807 fps=477 q=-0.0 size=N/A time=00:08:12.45 bitrate=N/A speed=19.9x    frame=12052 fps=477 q=-0.0 size=N/A time=00:08:22.66 bitrate=N/A speed=19.9x    frame=12330 fps=478 q=-0.0 size=N/A time=00:08:34.26 bitrate=N/A speed=19.9x    frame=12610 fps=479 q=-0.0 size=N/A time=00:08:45.94 bitrate=N/A speed=  20x    frame=12881 fps=480 q=-0.0 size=N/A time=00:08:57.24 bitrate=N/A speed=  20x    frame=13163 fps=481 q=-0.0 size=N/A time=00:09:09.00 bitrate=N/A speed=20.1x    frame=13442 fps=482 q=-0.0 size=N/A time=00:09:20.64 bitrate=N/A speed=20.1x    frame=13706 fps=483 q=-0.0 size=N/A time=00:09:31.65 bitrate=N/A speed=20.1x    frame=13991 fps=484 q=-0.0 size=N/A time=00:09:43.54 bitrate=N/A speed=20.2x    frame=14245 fps=484 q=-0.0 size=N/A time=00:09:54.13 bitrate=N/A speed=20.2x    frame=14527 fps=485 q=-0.0 size=N/A time=00:10:05.89 bitrate=N/A speed=20.2x    frame=14800 fps=486 q=-0.0 size=N/A time=00:10:17.28 bitrate=N/A speed=20.3x    frame=15071 fps=487 q=-0.0 size=N/A time=00:10:28.58 bitrate=N/A speed=20.3x    frame=15337 fps=487 q=-0.0 size=N/A time=00:10:39.68 bitrate=N/A speed=20.3x    frame=15563 fps=486 q=-0.0 size=N/A time=00:10:49.10 bitrate=N/A speed=20.3x    frame=15831 fps=487 q=-0.0 size=N/A time=00:11:00.28 bitrate=N/A speed=20.3x    frame=16086 fps=487 q=-0.0 size=N/A time=00:11:10.92 bitrate=N/A speed=20.3x    frame=16367 fps=488 q=-0.0 size=N/A time=00:11:22.64 bitrate=N/A speed=20.3x    frame=16639 fps=489 q=-0.0 size=N/A time=00:11:33.98 bitrate=N/A speed=20.4x    frame=16912 fps=489 q=-0.0 size=N/A time=00:11:45.37 bitrate=N/A speed=20.4x    frame=17197 fps=490 q=-0.0 size=N/A time=00:11:57.25 bitrate=N/A speed=20.4x    frame=17449 fps=490 q=-0.0 size=N/A time=00:12:07.76 bitrate=N/A speed=20.4x    frame=17708 fps=490 q=-0.0 size=N/A time=00:12:18.57 bitrate=N/A speed=20.4x    frame=17919 fps=489 q=-0.0 size=N/A time=00:12:27.37 bitrate=N/A speed=20.4x    frame=18154 fps=489 q=-0.0 size=N/A time=00:12:37.17 bitrate=N/A speed=20.4x    frame=18437 fps=489 q=-0.0 size=N/A time=00:12:48.97 bitrate=N/A speed=20.4x    frame=18737 fps=491 q=-0.0 size=N/A time=00:13:01.48 bitrate=N/A speed=20.5x    frame=19029 fps=492 q=-0.0 size=N/A time=00:13:13.66 bitrate=N/A speed=20.5x    frame=19320 fps=493 q=-0.0 size=N/A time=00:13:25.80 bitrate=N/A speed=20.5x    frame=19568 fps=492 q=-0.0 size=N/A time=00:13:36.14 bitrate=N/A speed=20.5x    frame=19790 fps=492 q=-0.0 size=N/A time=00:13:45.40 bitrate=N/A speed=20.5x    frame=20067 fps=492 q=-0.0 size=N/A time=00:13:56.96 bitrate=N/A speed=20.5x    frame=20357 fps=493 q=-0.0 size=N/A time=00:14:09.05 bitrate=N/A speed=20.6x    frame=20633 fps=494 q=-0.0 size=N/A time=00:14:20.56 bitrate=N/A speed=20.6x    frame=20876 fps=493 q=-0.0 size=N/A time=00:14:30.70 bitrate=N/A speed=20.6x    frame=21142 fps=494 q=-0.0 size=N/A time=00:14:41.79 bitrate=N/A speed=20.6x    frame=21400 fps=494 q=-0.0 size=N/A time=00:14:52.55 bitrate=N/A speed=20.6x    frame=21683 fps=494 q=-0.0 size=N/A time=00:15:04.36 bitrate=N/A speed=20.6x    frame=21983 fps=495 q=-0.0 size=N/A time=00:15:16.87 bitrate=N/A speed=20.7x    frame=22263 fps=496 q=-0.0 size=N/A time=00:15:28.55 bitrate=N/A speed=20.7x    frame=22546 fps=497 q=-0.0 size=N/A time=00:15:40.35 bitrate=N/A speed=20.7x    frame=22833 fps=497 q=-0.0 size=N/A time=00:15:52.32 bitrate=N/A speed=20.7x    frame=23080 fps=497 q=-0.0 size=N/A time=00:16:02.62 bitrate=N/A speed=20.7x    frame=23352 fps=497 q=-0.0 size=N/A time=00:16:13.97 bitrate=N/A speed=20.7x    frame=23632 fps=498 q=-0.0 size=N/A time=00:16:25.65 bitrate=N/A speed=20.8x    frame=23903 fps=498 q=-0.0 size=N/A time=00:16:36.95 bitrate=N/A speed=20.8x    frame=24155 fps=498 q=-0.0 size=N/A time=00:16:47.46 bitrate=N/A speed=20.8x    frame=24448 fps=499 q=-0.0 size=N/A time=00:16:59.68 bitrate=N/A speed=20.8x    frame=24727 fps=499 q=-0.0 size=N/A time=00:17:11.32 bitrate=N/A speed=20.8x    frame=24988 fps=499 q=-0.0 size=N/A time=00:17:22.20 bitrate=N/A speed=20.8x    frame=25274 fps=500 q=-0.0 size=N/A time=00:17:34.13 bitrate=N/A speed=20.8x    frame=25570 fps=501 q=-0.0 size=N/A time=00:17:46.48 bitrate=N/A speed=20.9x    frame=25805 fps=500 q=-0.0 size=N/A time=00:17:56.28 bitrate=N/A speed=20.9x    frame=26076 fps=500 q=-0.0 size=N/A time=00:18:07.58 bitrate=N/A speed=20.9x    frame=26324 fps=500 q=-0.0 size=N/A time=00:18:17.93 bitrate=N/A speed=20.9x    frame=26545 fps=500 q=-0.0 size=N/A time=00:18:27.14 bitrate=N/A speed=20.8x    frame=26770 fps=499 q=-0.0 size=N/A time=00:18:36.53 bitrate=N/A speed=20.8x    frame=27025 fps=499 q=-0.0 size=N/A time=00:18:47.16 bitrate=N/A speed=20.8x    frame=27288 fps=499 q=-0.0 size=N/A time=00:18:58.13 bitrate=N/A speed=20.8x    frame=27568 fps=499 q=-0.0 size=N/A time=00:19:09.81 bitrate=N/A speed=20.8x    frame=27864 fps=500 q=-0.0 size=N/A time=00:19:22.16 bitrate=N/A speed=20.9x    frame=28133 fps=500 q=-0.0 size=N/A time=00:19:33.42 bitrate=N/A speed=20.9x    frame=28413 fps=501 q=-0.0 size=N/A time=00:19:45.05 bitrate=N/A speed=20.9x    frame=28686 fps=501 q=-0.0 size=N/A time=00:19:56.44 bitrate=N/A speed=20.9x    frame=28947 fps=501 q=-0.0 size=N/A time=00:20:07.33 bitrate=N/A speed=20.9x    frame=29168 fps=500 q=-0.0 size=N/A time=00:20:16.54 bitrate=N/A speed=20.9x    frame=29442 fps=501 q=-0.0 size=N/A time=00:20:27.97 bitrate=N/A speed=20.9x    frame=29709 fps=501 q=-0.0 size=N/A time=00:20:39.11 bitrate=N/A speed=20.9x    frame=29967 fps=501 q=-0.0 size=N/A time=00:20:49.87 bitrate=N/A speed=20.9x    frame=30229 fps=501 q=-0.0 size=N/A time=00:21:00.80 bitrate=N/A speed=20.9x    frame=30487 fps=501 q=-0.0 size=N/A time=00:21:11.56 bitrate=N/A speed=20.9x    frame=30783 fps=501 q=-0.0 size=N/A time=00:21:23.90 bitrate=N/A speed=20.9x    frame=31066 fps=502 q=-0.0 size=N/A time=00:21:35.71 bitrate=N/A speed=20.9x    frame=31326 fps=502 q=-0.0 size=N/A time=00:21:46.55 bitrate=N/A speed=20.9x    frame=31581 fps=502 q=-0.0 size=N/A time=00:21:57.19 bitrate=N/A speed=20.9x    frame=31865 fps=502 q=-0.0 size=N/A time=00:22:09.03 bitrate=N/A speed=20.9x    frame=32120 fps=502 q=-0.0 size=N/A time=00:22:19.67 bitrate=N/A speed=20.9x    frame=32381 fps=502 q=-0.0 size=N/A time=00:22:30.55 bitrate=N/A speed=20.9x    frame=32596 fps=502 q=-0.0 size=N/A time=00:22:39.52 bitrate=N/A speed=20.9x    frame=32868 fps=502 q=-0.0 size=N/A time=00:22:50.86 bitrate=N/A speed=20.9x    frame=33075 fps=501 q=-0.0 size=N/A time=00:22:59.50 bitrate=N/A speed=20.9x    frame=33317 fps=501 q=-0.0 size=N/A time=00:23:09.59 bitrate=N/A speed=20.9x    frame=33577 fps=501 q=-0.0 size=N/A time=00:23:20.44 bitrate=N/A speed=20.9x    frame=33792 fps=500 q=-0.0 size=N/A time=00:23:29.40 bitrate=N/A speed=20.9x    frame=34045 fps=500 q=-0.0 size=N/A time=00:23:39.96 bitrate=N/A speed=20.9x    frame=34288 fps=500 q=-0.0 size=N/A time=00:23:50.09 bitrate=N/A speed=20.8x    [Parsed_ssim_10 @ 000001f220061d40] SSIM Y:0.994744 (22.793719) U:0.993798 (22.074983) V:0.994900 (22.924547) All:0.994613 (22.686267)
[out#0/null @ 000001f2200146c0] video:14800KiB audio:269580KiB subtitle:0KiB other streams:0KiB global headers:0KiB muxing overhead: unknown
frame=34443 fps=500 q=-0.0 Lsize=N/A time=00:23:56.56 bitrate=N/A speed=20.8x    
